<svg width="605" height="608" viewBox="0 0 605 608" fill="none" xmlns="http://www.w3.org/2000/svg">
<path fill-rule="evenodd" clip-rule="evenodd" d="M490.904 329.408C481.391 316.029 469.847 302.277 456.726 288.574C424.007 254.402 381.501 220.564 336.376 193.723C255.596 145.68 182.711 128.632 136.417 146.958C62.8493 176.085 72.8519 282.371 94.1878 366.41C94.8878 369.146 97.6588 370.806 100.386 370.136C103.113 369.458 104.761 366.691 104.071 363.958C74.904 249.115 87.4035 177.357 140.228 156.448C232.968 119.726 416.488 240.434 484.178 337.534C462.846 321.424 443.426 317.615 422.366 313.487L421.951 313.405C418.356 312.696 414.69 311.973 410.938 311.181C408.179 310.589 405.473 312.35 404.901 315.11C404.326 317.859 406.114 320.587 408.869 321.168C412.823 322.014 416.677 322.77 420.456 323.507C456.316 330.532 484.645 336.103 527.924 404.753C529.443 407.157 532.587 407.871 534.97 406.384C537.352 404.889 538.061 401.735 536.553 399.343C486.791 320.403 489.585 291.487 515.48 252.793C516.832 250.768 516.535 248.116 514.909 246.418C514.657 246.155 514.369 245.913 514.059 245.699C511.712 244.124 508.544 244.739 506.976 247.077C489.498 273.197 481.544 295.769 490.904 329.408Z" fill="#F7E32D"/>
</svg>
