<svg width="1534" height="1163" viewBox="0 0 1534 1163" fill="none" xmlns="http://www.w3.org/2000/svg">
<path fill-rule="evenodd" clip-rule="evenodd" d="M2718.14 1192.41C2715.9 1187.16 2709.13 1171.18 2399.21 1120.87C2299.2 1104.63 2115.88 1076.88 1871.57 1048.44C2269.45 1030.9 2523.85 872.204 2579.76 746.452C2598.88 703.456 2593.7 665.486 2565.21 639.538C2518.88 597.353 2416.5 592.639 2276.93 626.285C2193.73 646.335 2097.78 679.913 1992.02 725.697C2096.85 665.506 2186.3 613.374 2257.3 571.082C2437.55 463.678 2437.5 457.644 2437.44 450.005C2437.41 446.435 2435.2 442.767 2432.06 441.085C2426.97 438.326 2416.43 432.497 2147.83 584.716C2068.78 629.532 1932.78 708.053 1770.41 807.749C1976.65 629.698 2068.53 457.037 2052.56 379.984C2048.09 358.407 2034.83 344.763 2015.25 341.555C1929.01 327.431 1777.78 495.662 1637.87 704.434C1762.93 398.734 1721.1 159.299 1612.74 52.5506C1556.65 -2.6916 1486.13 -15.4263 1428.73 19.3251C1336.98 74.8607 1274.63 246.769 1330.63 567.844C1265.29 375.181 1192.34 190.812 1151.19 186.431C1143.55 185.55 1136.93 189.482 1132.76 196.974C1101.68 252.98 1184.89 617.609 1347.07 876.84C1116.17 702.331 666.25 699.524 520.383 762.982C476.544 782.054 470.131 803.65 472.477 818.4C481.423 874.845 642.454 926.664 933.113 968.379C930.132 968.37 927.189 968.37 924.226 968.37C363.399 968.37 69.3082 1134.82 11.89 1258.93C-9.01242 1304.12 -2.19811 1346.84 31.0914 1379.24C91.6283 1438.16 231.776 1455.83 415.558 1427.72C556.967 1406.09 721.801 1358.36 902.385 1287.22C659.143 1416.85 404.735 1565.52 407.277 1619.08C407.658 1627.16 412.722 1633.64 421.189 1636.89C493.155 1664.48 942.548 1478.03 1267.39 1211.69C1062.19 1478.34 993.729 1769.96 1032.27 1855.46C1042.07 1877.23 1057.28 1881 1066.61 1881C1067.3 1881 1067.95 1880.98 1068.56 1880.94C1091.43 1879.66 1163.43 1847.25 1287.28 1546.11C1243.88 1706.53 1218.68 1835.25 1242.47 1855.43C1247.97 1860.12 1255.27 1860.62 1262.53 1856.9C1317.5 1828.65 1457.53 1480.99 1476.08 1199.3C1542.81 1469.19 1746.67 1784.44 1808.91 1803.86C1821.06 1807.62 1827.71 1801.46 1829.99 1798.65C1856.08 1766.75 1773.44 1583.07 1670.86 1384.22C1764.38 1506.99 1869.17 1601.96 1980.24 1663.72C2114.91 1738.57 2258.02 1762.71 2372.88 1729.89C2484.07 1698.13 2549.93 1619.68 2544.75 1525.15C2539.78 1434.22 2468.43 1340.55 2343.86 1261.38C2256.24 1205.7 2145.32 1157.77 2012.26 1117.94C2191.29 1146.81 2344.2 1169.79 2463.35 1185.68C2705.13 1217.93 2712.08 1209.12 2716.69 1203.32C2719.13 1200.22 2719.68 1196.05 2718.14 1192.41Z" fill="#F7E32D"/>
</svg>
