<svg width="697" height="873" viewBox="0 0 697 873" fill="none" xmlns="http://www.w3.org/2000/svg">
<path fill-rule="evenodd" clip-rule="evenodd" d="M1028.33 386.062C1006.7 366.902 947.107 367.84 860.529 388.655C763.807 411.914 639.436 458.743 499.437 524.553C699.075 300.31 744.274 105.079 622.853 -13.68C506.567 -127.42 269.587 -127.45 153.283 -13.7101C31.8142 105.085 77.0971 300.436 276.945 524.835C125.99 455.367 35.6884 437.681 8.35885 472.259C-20.5864 508.883 32.2466 585.68 66.3215 628.189C161.122 746.484 340.83 888.393 418.194 850.77C447.908 836.316 458.972 798.417 451.277 737.885C531.422 903.19 589.727 963.006 616.606 963H616.93C624.21 962.868 629.862 958.824 632.853 951.609C649.137 912.409 590.099 773.239 437.763 611.201C794.344 582.382 1013.65 479.137 1035.29 414.682C1039.04 403.519 1036.57 393.355 1028.33 386.062" fill="#5D5FEF"/>
</svg>
