<svg width="145" height="161" viewBox="0 0 145 161" fill="none" xmlns="http://www.w3.org/2000/svg">
<path fill-rule="evenodd" clip-rule="evenodd" d="M57.005 71.8063C57.2093 71.8413 57.4101 71.8588 57.6108 71.8588C59.2945 71.8588 60.7775 70.6593 61.0769 68.9598C65.0114 46.4638 70.4288 7.74891 62.5034 1.22008C61.0135 -0.0073584 59.1325 -0.325582 57.3009 0.342338C47.9066 3.82182 40.9217 40.0469 38.3504 55.465C38.0298 57.3673 39.3331 59.1683 41.2493 59.483C43.1549 59.8222 44.9795 58.5108 45.3001 56.605C50.4428 25.7443 55.8884 12.5467 58.6112 8.34689C59.9039 13.6798 60.6824 30.3218 54.1377 67.7638C53.8031 69.6662 55.0888 71.4776 57.005 71.8063ZM104.304 68.2203C104.08 68.2203 103.845 68.1993 103.617 68.1536C101.689 67.7812 100.43 65.9366 100.811 64.0324C106.249 36.6631 103.973 15.8744 101.504 10.5763C99.5161 13.4713 94.3691 24.5209 89.1616 64.8686C88.9162 66.7939 87.1626 68.122 85.1814 67.9076C83.2321 67.6617 81.8556 65.9015 82.1046 63.9762C89.4485 7.08307 97.116 4.0986 99.6357 3.11785L99.637 3.11735C101.59 2.36549 103.678 2.71331 105.346 4.08705C112.862 10.2776 112.677 40.7773 107.79 65.3815C107.459 67.0609 105.972 68.2203 104.304 68.2203ZM72.1686 161C69.9028 161 67.6301 160.864 65.3433 160.594C37.3079 157.273 5.42262 131.306 0.012974 68.3822C-0.152126 66.4594 1.27757 64.7674 3.2131 64.6031C5.07837 64.3863 6.8488 65.8616 7.01039 67.7879C11.1765 116.186 34.3959 149.886 66.1723 153.648C96.2872 157.242 124.593 133.417 138.156 93.0041C138.771 91.1757 140.766 90.1723 142.599 90.7946C144.44 91.4064 145.431 93.3851 144.819 95.217C131.155 135.938 103.127 161 72.1686 161Z" fill="#A0C3D2"/>
</svg>
