<svg width="235" height="158" viewBox="0 0 235 158" fill="none" xmlns="http://www.w3.org/2000/svg">
<path fill-rule="evenodd" clip-rule="evenodd" d="M172.992 90.1566C173.28 89.3059 173.348 88.4356 173.14 87.5536C172.45 84.6113 168.702 82.3577 161.94 80.8007C203.145 82.8353 226.907 88.8652 228.776 92.6901C228.839 92.8151 228.825 92.8323 228.761 92.9102C226.65 95.5346 208.505 96.1792 172.992 90.1566ZM125.06 80.1367C164.904 79.8548 170.652 85.5259 171.241 88.0383C171.374 88.6045 171.297 89.2164 171.025 89.8626C157.994 87.5806 142.689 84.4118 125.06 80.1367ZM152.174 88.2641C158.48 89.5321 164.405 90.6346 169.956 91.5855C169.234 92.4088 168.251 93.2669 167.03 94.1415C162.728 92.165 157.765 90.2005 152.174 88.2641ZM184.865 112.824C183.78 118.902 171.017 122.766 156.995 121.26C143.332 119.793 133.897 114.848 127.77 108.251C138.959 107.479 152.141 103.848 161.244 99.5235C163.238 98.5767 165.332 97.4615 167.203 96.2218C169.137 97.1426 170.93 98.068 172.579 98.9979C181.225 103.872 185.589 108.782 184.865 112.824ZM117.141 91.4052C118.238 97.0403 120.447 102.123 123.717 106.516C119.431 106.499 115.891 105.922 113.301 104.824C114.918 100.715 116.256 96.2376 117.141 91.4052ZM109.307 102.28C106.235 98.3582 108.701 91.4155 116.438 82.1776C115.955 89.9959 114.079 97.3148 111.292 104.002C110.479 103.502 109.814 102.927 109.307 102.28ZM64.0259 143.789C63.3139 142.336 62.6937 137.605 72.2878 125.085C78.3176 117.218 87.0546 107.974 98.3659 97.4849C98.3959 97.5107 98.4288 97.5358 98.4621 97.5588C99.2925 98.1442 100.67 99.1002 107.79 91.8005C105.616 96.6951 105.647 100.621 107.9 103.534C108.614 104.457 109.541 105.238 110.647 105.889C100.914 128.062 81.4615 142.889 70.3455 145.203C68.4401 145.602 65.0849 145.949 64.0259 143.789ZM23.7239 140.448C23.7116 136 45.5872 115.622 98.9439 89.046C98.1494 91.1222 97.5815 93.0099 97.4014 94.4981C53.1013 130.411 27.8918 142.587 23.8978 140.741C23.7701 140.681 23.7251 140.643 23.7239 140.448ZM83.916 93.5124C62.6848 103.152 48.4938 109.245 39.9033 112.719C49.0017 108.387 64.0477 101.688 83.916 93.5124ZM21.2285 75.3794C22.4528 73.4362 25.4925 71.887 29.9391 70.8344C34.1138 69.8462 39.5288 69.2957 45.8415 69.268C60.9131 69.2009 81.1196 71.9623 104.657 77.2836C103.532 79.3624 102.345 81.6476 101.266 83.912C58.8734 96.7838 28.7208 88.4486 22.0281 80.362C20.5434 78.5682 20.2743 76.892 21.2285 75.3794ZM62.289 38.8457C64.8547 37.4825 67.8739 36.3998 71.1663 35.6204C84.5494 32.4525 102.411 34.3177 112.331 42.8978C116.055 46.1208 118.505 50.1136 119.664 54.7753C115.812 58.7559 111.023 66.4721 107.895 71.8459C107.328 72.8204 106.662 73.9827 105.947 75.2669C86.8833 70.1419 56.8413 60.2208 55.3557 48.3073C54.7975 43.8299 58.818 40.691 62.289 38.8457ZM123.439 54.1569C123.632 54.5424 123.882 56.0455 122.218 61.7183C122.257 59.4202 122.049 57.316 121.647 55.3897C122.453 54.6415 123.088 54.225 123.439 54.1569ZM100.219 95.714C102.599 93.4609 105.087 91.1553 107.686 88.7949C103.351 93.5892 101.224 95.1962 100.219 95.714ZM99.7591 92.4895C100.164 91.2237 100.778 89.6189 101.629 87.6843C104.714 86.1823 107.909 84.6553 111.197 83.1151C107.258 86.3992 103.445 89.5221 99.7591 92.4895ZM121.072 78.1876C120.536 78.1981 120.11 78.6364 120.119 79.1716C120.119 79.2442 120.129 79.3145 120.144 79.3814C120.188 79.5651 120.284 79.7284 120.415 79.8547C120.405 79.8849 120.395 79.915 120.388 79.9467C120.35 80.101 120.351 80.2558 120.386 80.4C120.467 80.7429 120.733 81.0282 121.099 81.1177C139.543 85.6245 154.278 90.3644 165.06 95.2519C163.694 96.0946 162.12 96.944 160.355 97.7835C152.042 101.738 140.78 104.905 130.965 106.046C129.283 106.241 127.675 106.374 126.145 106.445C120.15 98.9832 117.918 89.7851 118.294 81.1668C118.298 81.0743 118.289 80.9858 118.268 80.9001C118.171 80.4893 117.81 80.1768 117.368 80.1571C117.172 80.1507 116.987 80.1995 116.829 80.2936C116.782 80.2261 116.725 80.1639 116.658 80.1091C116.386 79.8801 116.024 79.8264 115.706 79.9405C115.7 79.9221 115.693 79.9037 115.686 79.8855C115.493 79.3868 114.934 79.1361 114.433 79.3325C110.868 80.7136 107.377 81.9439 103.961 83.0381C104.77 81.395 105.696 79.5985 106.75 77.6546C108.891 78.1497 111.06 78.6642 113.254 79.2006C113.774 79.3292 114.298 79.01 114.428 78.4899C114.465 78.3358 114.463 78.1819 114.429 78.0368C114.348 77.6948 114.082 77.4085 113.716 77.32C111.953 76.8886 109.949 76.3829 107.764 75.8065C107.816 75.7136 107.867 75.6198 107.921 75.5265C112.841 66.7121 117.125 60.49 119.995 57.0892C120.864 62.8219 119.958 69.4515 117.255 76.8196C117.188 77.0046 117.179 77.1957 117.221 77.3738C117.294 77.68 117.513 77.9455 117.832 78.0621C118.338 78.2458 118.894 77.9859 119.077 77.4847C127.715 53.9375 125.413 52.8645 124.176 52.2875C123.389 51.9187 122.346 52.3209 121.151 53.2573C119.575 47.8852 116.547 44.0466 113.463 41.3688C100.53 30.1445 74.7721 29.8148 61.2383 37.0195C55.5741 40.0359 52.7546 44.0974 53.3002 48.4538C54.0357 54.3365 60.9388 62.5771 86.3954 71.4408C43.9503 63.7169 23.9004 67.5804 19.7107 74.2398C18.3036 76.4754 18.6409 79.0503 20.6575 81.4914C28.279 90.7112 55.9591 96.6307 91.2384 88.5095C76.8061 94.3447 63.2989 100.049 51.8806 105.141C28.5272 115.558 28.3758 116.696 28.2935 117.309C28.2468 117.659 28.4202 118.063 28.7052 118.273C29.2684 118.685 29.969 119.198 50.5355 110.453C55.9845 108.136 63.6085 104.827 73.8405 100.249C40.0813 119.282 21.9142 134.933 21.9248 140.318C21.9265 141.252 22.3886 141.979 23.2265 142.363C27.8391 144.482 44.1832 134.913 50.9958 130.699C59.237 125.604 71.4251 117.399 87.7755 104.713C68.3468 123.993 58.9619 138.254 62.0405 144.524C62.7421 145.955 64.7766 148.177 70.5076 146.975C77.5439 145.518 89.2385 138.686 99.4994 126.782C103.811 121.78 108.619 115.026 112.301 106.66C115.681 108.034 120.198 108.537 125.243 108.386C126.331 109.628 127.515 110.805 128.794 111.915C135.863 118.048 145.789 122.08 156.747 123.272C163.192 123.972 169.23 123.621 174.183 122.449C181.16 120.797 185.981 117.515 186.739 113.238C187.778 107.376 181.529 101.122 168.912 94.9552C170.169 93.9718 171.245 92.9271 172.006 91.8375C207.95 97.9471 227.315 97.41 230.072 93.9991C230.613 93.3299 230.703 92.4964 230.321 91.7143C227.27 85.4794 186.611 77.0737 121.072 78.1876Z" fill="#FF4632"/>
</svg>
