<svg width="293" height="342" viewBox="0 0 293 342" fill="none" xmlns="http://www.w3.org/2000/svg">
<path fill-rule="evenodd" clip-rule="evenodd" d="M131.663 149.723C158.24 134.507 178.507 122.701 193.716 113.678C176.535 123.285 155.17 135.606 131.663 149.723ZM274.384 236.368C247.837 230.624 188.052 220.724 111.668 212.107C199.661 226.974 250.932 234.074 274.384 236.368ZM-37.1535 367.548C-35.9437 370.244 -34.5617 370.171 -34.0338 370.139C-25.8007 369.672 -3.01576 341.165 30.1704 237.286C30.5556 236.089 31.8288 235.431 33.0183 235.813C33.9811 236.123 34.5928 237.019 34.5928 237.983C34.5928 238.213 34.5566 238.448 34.4841 238.681C1.25713 342.697 2.3446 362.221 3.1806 365.522C6.88482 362.734 17.2181 344.176 27.5356 311.982C39.1557 275.728 44.6611 240.673 42.6402 215.806C42.6357 215.742 42.6334 215.681 42.6334 215.617C42.6334 214.443 43.5306 213.447 44.7155 213.349C45.9525 213.24 47.0558 214.181 47.1578 215.435C52.0061 275.122 104.527 351.981 113.745 354.939C114.187 352.27 113.394 334.501 59.8223 236.221C59.632 235.873 59.5414 235.494 59.5437 235.121C59.5459 234.318 59.9719 233.541 60.7218 233.126C61.8183 232.52 63.1981 232.926 63.7962 234.029C87.3559 277.253 116.713 309.55 148.692 327.426C174.379 341.788 201.534 346.453 223.211 340.229C243.232 334.478 255.102 320.509 254.189 303.772C252.508 272.87 208.234 232.57 89.0234 212.141C87.9178 211.952 87.1361 210.988 87.1384 209.896C87.1384 209.768 87.1497 209.641 87.1724 209.513C87.2177 209.233 87.3129 208.975 87.4465 208.745C83.4523 208.33 79.4309 207.92 75.3642 207.516C74.1929 207.398 73.3207 206.406 73.3207 205.249C73.3207 205.173 73.3252 205.098 73.332 205.023C73.4543 203.769 74.6007 202.864 75.8105 202.978C135.912 208.971 178.901 198.659 204.38 188.959C238.488 175.969 256.237 158.681 261.475 146.831C263.591 142.049 264.982 135.316 259.606 130.395C247.594 119.398 196.906 117.982 83.1329 182.417C82.0477 183.033 80.6611 182.647 80.0471 181.549C80.0313 181.521 80.0177 181.494 80.0018 181.464C75.2487 184.487 70.466 187.55 65.6743 190.648C64.6186 191.329 63.2184 191.019 62.5433 189.961C62.3009 189.581 62.1831 189.155 62.1831 188.735C62.1831 187.983 62.5524 187.249 63.2252 186.814C134.906 140.486 159.913 91.3219 156.853 76.4656C156.322 73.8992 155.031 72.4792 152.901 72.1282C143.105 70.519 111.387 90.2005 61.4558 176.186C60.8305 177.275 59.444 177.642 58.3565 177.004C57.636 176.58 57.235 175.816 57.235 175.032C57.235 174.643 57.3347 174.248 57.5454 173.888C101.545 98.1118 95.3443 37.6019 70.9622 13.4463C61.1477 3.72525 49.4482 1.48474 39.6655 7.43817C19.2821 19.8465 5.85852 68.6888 35.1162 165.51C35.1819 165.733 35.2136 165.956 35.2136 166.175C35.2136 167.153 34.5861 168.056 33.6073 168.354C32.4043 168.73 31.1446 168.04 30.7799 166.836C-2.84132 55.5716 -15.3904 42.8784 -17.5789 41.4539C-22.1735 49.9191 -4.1123 136.663 36.1289 188.498C36.4529 188.913 36.6069 189.405 36.6092 189.893C36.6115 190.572 36.3147 191.247 35.7392 191.698C34.7469 192.473 33.3264 192.295 32.5584 191.306C-8.41236 138.532 -117.346 88.4887 -128.934 91.7162C-127.747 94.6838 -115.561 110.994 4.40628 177.603C5.15392 178.02 5.57532 178.798 5.57532 179.602C5.57532 179.974 5.48469 180.352 5.29438 180.701C4.68947 181.799 3.31427 182.205 2.21546 181.594C-109.246 119.708 -182.796 137.86 -211.916 172.208C-229.234 192.64 -230.935 219.175 -216.146 238.234C-191.492 270.002 -122.505 282.641 -2.81865 222.828C-1.6904 222.268 -0.33558 222.73 0.219487 223.856C0.380343 224.182 0.455105 224.529 0.455105 224.868C0.455105 225.707 -0.00479802 226.514 -0.800016 226.911C-151.674 302.309 -160.029 319.857 -160.467 321.853C-151.386 327.337 -39.3806 283.441 26.9918 215.931C27.8709 215.036 29.305 215.027 30.1953 215.913C30.6462 216.36 30.8682 216.948 30.8682 217.536C30.8682 218.113 30.6507 218.692 30.2135 219.136C-27.006 277.337 -44.6662 350.789 -37.1535 367.548ZM-41.5213 369.722C-49.0715 352.879 -35.9946 296.041 3.40165 243.467C-60.8183 295.597 -148.14 331.881 -162.311 326.398C-164.113 325.703 -165.196 324.306 -165.277 322.56C-165.805 311.323 -113.074 280.519 -60.7639 252.792C-94.6991 264.645 -123.348 269.62 -146.891 269.622C-183.018 269.624 -207.132 257.915 -219.985 241.359C-236.139 220.548 -234.39 191.704 -215.63 169.581C-190.301 139.709 -133.028 121.387 -48.1379 153.421C-94.5292 126.264 -134.83 99.9812 -133.814 91.1528C-133.726 90.3825 -133.246 88.5138 -130.712 87.796C-116.543 83.7874 -31.7481 123.495 16.9046 168.478C-12.655 117.392 -27.5357 50.0985 -21.6124 39.3718C-20.7242 37.7583 -19.283 36.9425 -17.6402 37.1043C-9.63449 37.9612 4.21741 72.4134 16.8638 109.448C6.93885 47.9222 19.2182 14.7735 37.0944 3.89631C48.601 -3.09989 62.709 -0.552088 73.9233 10.5552C87.075 23.5791 94.4915 45.9304 94.274 71.8825C94.104 92.2876 89.3115 114.548 80.2227 137.624C107.48 97.2465 136.598 65.2053 153.432 67.9787C157.452 68.6396 160.171 71.4472 161.086 75.8865C164.188 90.9271 146.903 124.147 108.035 158.763C138.723 139.887 164.345 125.019 179.461 116.407C232.775 86.0298 234.903 87.1898 236.047 87.8187C236.772 88.213 237.28 89.0562 237.286 89.8857C237.298 91.5766 237.309 92.7981 201.464 114.268C188.511 122.025 172.457 131.441 153.781 142.245C172.713 134.244 189.973 128.312 205.103 124.646C232.845 117.927 253.218 118.889 262.473 127.36C268.228 132.629 269.28 140.32 265.43 149.018C254.515 173.701 205.536 204.749 128.884 209.113C175.305 214.612 210.179 219.924 229.439 223.066C290.972 233.107 292.322 236.3 292.828 237.503C293.152 238.269 293.007 239.356 292.495 240.008C291.423 241.37 290.081 243.064 242.043 236.621C219.51 233.602 190.884 229.295 157.474 223.907C181.813 231.555 202.259 240.634 218.606 251.078C243.359 266.892 257.537 285.626 258.53 303.833C259.563 322.807 246.434 338.549 224.264 344.914C186.649 355.714 133.212 338.082 87.1702 278.947C106.723 317.346 122.066 352.209 116.959 358.489C116.458 359.102 115.017 360.442 112.431 359.631C100.215 355.805 60.5631 294.418 46.8222 241.06C42.603 296.848 15.3093 364.592 4.51424 370.166C2.95299 370.973 1.37361 370.852 0.179446 369.834C-4.40915 365.919 -0.0607569 342.211 7.84976 312.13C-8.75756 351.837 -23.5181 374.394 -34.0164 374.989C-34.1455 374.995 -34.2792 375 -34.4243 375C-36.3594 375 -39.5046 374.221 -41.5213 369.722Z" fill="#5D5FEF"/>
</svg>
