<svg width="140" height="15" viewBox="0 0 140 15" fill="none" xmlns="http://www.w3.org/2000/svg">
    <path fill-rule="evenodd" clip-rule="evenodd" d="M50.6415 5.3119C65.5333 3.55187 79.5125 2.92941
93.003 2.80458C65.1927 0.804048 37.1811 1.43899 9.49591 4.69693C24.6839 5.58569 37.2485 5.61814 50.6415
 5.3119ZM7.03228 14.3884C6.9028 13.944 7.18127 13.4871 7.65306 13.3648C18.029 10.6952 27.9217 8.6722 37.4206 7.15099C26.1888 7.146 14.6706 6.82229 0.816448 5.78541C0.365936 5.75129 0.0156359 5.40594 0.000559705 4.9832C-0.0154033 4.55962 0.311839 4.19347 0.757917 4.13189C34.5472 -0.513273 68.9006 -1.24475 102.865 1.95244C103.329 1.99655 103.673 2.36852 103.664 2.79876C110.538 2.84785 117.313 2.98599 124.041 3.12247C128.985 3.22316 134.098 3.32718 139.126 3.39209C139.613 3.39792 140.003 3.77239 140 4.22925C139.996 4.68694 139.601 5.05643 139.113 5.05643C109.432 5.05643 88.1822 5.77708 71.1079 6.35544C63.8864 6.60093 57.2431 6.82645 50.7932 6.97374C37.4055 8.55985 23.2809 11.0688 8.1222 14.9709C8.04327 14.99 7.96434 15 7.88719 15C7.49787 15 7.14047 14.7578 7.03228 14.3884Z"
          fill="#5D5FEF"/>
</svg>
